<svg id="Layer_1" data-name="Layer 1" xmlns="http://www.w3.org/2000/svg" viewBox="0 0 1670.33 1500"><defs><style>.cls-1{stroke:#ce1717;stroke-linecap:round;stroke-width:176.33px;}.cls-1,.cls-4{stroke-miterlimit:10;}.cls-2{fill:#fff;}.cls-3{fill:#151f6b;}.cls-4{fill:none;stroke:#151f6b;stroke-width:123.55px;}</style></defs><title>Artboard 1 copy 9</title><line class="cls-1" x1="799.69" y1="351.16" x2="1292.72" y2="351.16"/><line class="cls-1" x1="798.37" y1="623.99" x2="1380.92" y2="623.99"/><line class="cls-1" x1="741.66" y1="890.95" x2="1261.23" y2="890.95"/><line class="cls-1" x1="741.66" y1="1160.15" x2="1126.83" y2="1160.15"/><path class="cls-2" d="M778.46,1361.34c-60.43,0-111.74-29.11-144.47-82l-.5-.81L481.85,1023.9v159.25c0,48-17.21,91.5-49.78,125.78s-74.37,52.4-120.87,52.4c-45.67,0-87-18.14-119.57-52.46-32.49-34.15-49.72-77.66-49.72-125.72V327.51c0-48,17.22-91.5,49.78-125.79s73.89-52.4,119.51-52.4H532.68c5.73,0,11.43.41,26.5,1.89,13.12,1.32,27.78,3.67,45.07,7.19,16.79,3.42,35,8.05,55.6,14.16a476.08,476.08,0,0,1,67.71,26.1l3,1.4,2.87,1.6c66.2,36.77,119.07,89.25,157.11,156s57.23,143,57.23,227.12c0,3.59-.11,7.75-.79,22.85a391.35,391.35,0,0,1-6.49,52.5c-3.24,17.62-7.64,36.76-13.46,58.52a445.69,445.69,0,0,1-27.94,75.24l-.59-.15a395.27,395.27,0,0,1-71.42,105.15q-4.92,5.17-10,10.19l204,344.25H933q-3.31,7.68-7.36,15.22a192.32,192.32,0,0,1-52.76,62.1l-.75.57-.76.56C845.1,1351.11,813,1361.34,778.46,1361.34ZM532.68,661c43,0,55.19-15.42,61.57-26.51a89.48,89.48,0,0,0,4.57-13c2.39-9,4.29-17.14,5.62-24.07s1.63-10.13,1.66-10.56q.21-2.9.34-4.78c-.57-45-15.68-55.53-26.8-61.61a91.4,91.4,0,0,0-14.3-5.54c-7.7-2.11-15.17-4-22.18-5.47a59.52,59.52,0,0,0-10.49-.95H481.85V661Z"/><path class="cls-3" d="M835.17,1144.78h-1.35q10.79,19.92,10.8,38.38,0,15.66-8.78,32a85.59,85.59,0,0,1-23.63,27.72q-13.52,10-33.76,9.95-37.82,0-58.07-32.69L536.73,911.68h-158v271.47a68.77,68.77,0,0,1-19.58,49q-19.59,20.62-47.94,20.61-27,0-46.59-20.61a68.68,68.68,0,0,1-19.58-49V327.51a68.75,68.75,0,0,1,19.58-49q19.56-20.59,46.59-20.61H532.68c1.79,0,7.43.49,16.88,1.42s21.14,2.84,35.11,5.69,29.71,6.88,47.26,12.08a373.77,373.77,0,0,1,53.34,20.61Q759.53,338.9,802.09,413.5t42.54,171.27c0,1.91-.23,7.82-.67,17.77a283.66,283.66,0,0,1-4.73,37q-4.05,22.05-11.48,49.75a331.68,331.68,0,0,1-20.93,56.14V744a285.87,285.87,0,0,1-52.67,78.17,316.5,316.5,0,0,1-75.62,58.28ZM378.73,769.55H532.68q106.66,0,152.6-83.86a202.78,202.78,0,0,0,12.83-34.82q4.72-17.76,7.43-32a218.67,218.67,0,0,0,3.38-23.45q.67-9.23.67-10.66,0-116.53-85.08-162a194.51,194.51,0,0,0-33.09-12.79q-15.54-4.26-29-7.11A158.54,158.54,0,0,0,532.68,400H378.73Z"/><rect class="cls-4" x="63.3" y="60.81" width="1542.48" height="1378.38"/></svg>